<?xml version="1.0" encoding="UTF-8"?>
<svg width="258px" height="258px" viewBox="0 0 258 258" version="1.1" xmlns="http://www.w3.org/2000/svg" xmlns:xlink="http://www.w3.org/1999/xlink">
    <title>Bevry General Icon</title>
    <g id="Bevry-General-Icon" stroke="none" stroke-width="1" fill="none" fill-rule="evenodd">
        <g id="Bevry" transform="translate(137.000000, 132.000000)" fill="#000000" fill-rule="nonzero">
            <path d="M10.9090351,107.367872 L10.9090351,12.3444345 C16.3635527,11.0525751 25.1194888,10.1913355 33.731885,10.1913355 C46.2198594,10.1913355 54.2580958,12.3444345 60.1432332,17.2247923 C65.167131,20.9568307 68.3250096,26.6984281 68.3250096,34.3060447 C68.3250096,43.7796805 62.0092524,51.9614569 51.9614569,55.5499553 L51.9614569,55.9805751 C61.1480128,58.1336741 71.913508,65.7412907 71.913508,80.0952843 C71.913508,88.4206006 68.6120895,94.8798978 63.5881917,99.4731757 C56.9853546,105.645393 46.0763195,108.516192 30.2869265,108.516192 C21.6745304,108.516192 15.0716933,107.942032 10.9090351,107.367872 Z M23.3970096,20.6697508 L23.3970096,51.9614569 L34.7366645,51.9614569 C47.7987987,51.9614569 55.5499553,44.928 55.5499553,35.5979042 C55.5499553,24.4017891 47.081099,19.8085112 34.4495847,19.8085112 C28.7079872,19.8085112 25.4065687,20.239131 23.3970096,20.6697508 Z M23.3970096,61.2915527 L23.3970096,98.1813163 C25.9807284,98.6119361 29.4256869,98.755476 33.8754249,98.755476 C46.7940192,98.755476 58.7078339,94.0186581 58.7078339,79.9517444 C58.7078339,66.8896102 47.3681789,61.2915527 33.731885,61.2915527 L23.3970096,61.2915527 Z M146.681866,75.2149265 L97.8782875,75.2149265 C98.1653674,92.2961789 108.930863,99.3296358 121.705917,99.3296358 C130.748933,99.3296358 136.34699,97.7506965 140.940268,95.7411374 L143.236907,104.784153 C138.787169,106.793712 131.036013,109.233891 119.983438,109.233891 C98.5959872,109.233891 85.8209329,95.0234377 85.8209329,74.066607 C85.8209329,53.1097764 98.1653674,36.7462236 118.404498,36.7462236 C141.227348,36.7462236 147.112486,56.5547348 147.112486,69.3297891 C147.112486,71.913508 146.968946,73.7795272 146.681866,75.2149265 Z M98.0218275,66.1719105 L134.911591,66.1719105 C135.055131,58.2772141 131.610173,45.7892396 117.399719,45.7892396 C104.481125,45.7892396 99.026607,57.4159744 98.0218275,66.1719105 Z M156.139553,38.181623 L169.632307,38.181623 L183.268601,77.0809457 C185.56524,83.5402428 187.431259,89.2818403 188.866658,95.0234377 L189.297278,95.0234377 C190.876217,89.2818403 192.885776,83.5402428 195.182415,77.0809457 L208.675169,38.181623 L221.880843,38.181623 L194.608256,107.654952 L182.550901,107.654952 L156.139553,38.181623 Z M235.788268,107.654952 L235.788268,59.8561534 C235.788268,51.674377 235.644728,44.6409201 235.214109,38.181623 L246.266684,38.181623 L246.840843,51.9614569 L247.271463,51.9614569 C250.429342,42.631361 258.180498,36.7462236 266.649355,36.7462236 C267.941214,36.7462236 268.945994,36.8897636 270.094313,37.0333035 L270.094313,48.9471182 C268.802454,48.6600383 267.510594,48.6600383 265.788115,48.6600383 C256.888639,48.6600383 250.572882,55.2628754 248.850403,64.7365112 C248.563323,66.4589904 248.419783,68.6120895 248.419783,70.6216486 L248.419783,107.654952 L235.788268,107.654952 Z M279.12138,38.181623 L292.901214,38.181623 L307.972907,79.2340447 C309.695387,83.8273227 311.417866,89.2818403 312.566185,93.4444984 L312.853265,93.4444984 C314.145125,89.2818403 315.580524,83.9708626 317.303003,78.9469649 L331.082837,38.181623 L344.432051,38.181623 L325.48478,87.702901 C316.441764,111.53053 310.269546,123.587885 301.65715,131.195502 C295.341393,136.506479 289.312716,138.659578 286.154837,139.233738 L282.996958,128.755323 C286.154837,127.750543 290.317495,125.740984 294.049534,122.583105 C297.494492,119.855847 301.65715,114.975489 304.671489,108.516192 C305.245649,107.224332 305.676268,106.219553 305.676268,105.501853 C305.676268,104.784153 305.389188,103.779374 304.671489,102.200435 L279.12138,38.181623 Z"></path>
        </g>
    </g>
</svg>